<svg id="Layer_1" data-name="Layer 1" xmlns="http://www.w3.org/2000/svg" viewBox="0 0 301.63 128.35"><defs><style>.cls-1{fill:#fff;}</style></defs><circle class="cls-1" cx="274.08" cy="27.54" r="27.54"/><polygon class="cls-1" points="301.63 100.81 246.54 73.26 246.54 128.35 301.63 100.81"/><path class="cls-1" d="M49.14,8.6h4.92V25.39h17.6V8.6h4.91V46.4H71.66V29.82H54.06V46.4H49.14Z"/><path class="cls-1" d="M84.13,34c0-7.35,4.7-13.12,12.42-13.12A9.55,9.55,0,0,1,105.3,26V21.5H110V46.4h-4.7V42a9.9,9.9,0,0,1-8.85,5C88.51,47.05,84.13,41.32,84.13,34Zm21.39,0c0-4.81-3-8.91-8.42-8.91-5.14,0-8.32,3.78-8.32,8.91S92,42.83,97.1,42.83C102.55,42.83,105.52,38.78,105.52,34Z"/><path class="cls-1" d="M119.23,21.5h4.7V26a7.62,7.62,0,0,1,7.45-5.18c4.38,0,7,2.05,7.94,5.34a8.45,8.45,0,0,1,8.05-5.34c6.69,0,9,4.32,9,9.77V46.4h-4.7V31.55c0-4.7-2-6.64-5.4-6.64-3.67,0-6.1,2.48-6.1,8.53v13h-4.7V31.93c0-5.4-2.32-7-5.34-7-3.84,0-6.16,2.7-6.16,8.53v13h-4.7Z"/><path class="cls-1" d="M163.35,34c0-7.35,4.7-13.12,12.42-13.12A9.55,9.55,0,0,1,184.52,26V21.5h4.64V46.4h-4.64V42a9.92,9.92,0,0,1-8.86,5C167.72,47.05,163.35,41.32,163.35,34Zm21.38,0c0-4.81-3-8.91-8.42-8.91-5.13,0-8.32,3.78-8.32,8.91s3.19,8.85,8.32,8.85c5.45,0,8.42-4.07,8.42-8.85Z"/><path class="cls-1" d="M198.45,21.5h4.7v5.67a7.28,7.28,0,0,1,7.29-6,9.65,9.65,0,0,1,2.27.21V25.7a11.37,11.37,0,0,0-2.33-.16c-4.91,0-7.23,4.48-7.23,10V46.4h-4.7Z"/><path class="cls-1" d="M0,88.77H4.7v5.67a7.31,7.31,0,0,1,7.29-6,9.65,9.65,0,0,1,2.27.21V93a11.37,11.37,0,0,0-2.33-.16c-4.91,0-7.23,4.48-7.23,10V113.7H0Z"/><path class="cls-1" d="M42.07,102.6H22.79c.11,4.81,3.08,7.61,7.83,7.61,3.29,0,5.56-1.29,6.59-3.67H41.9c-.86,4.59-5.45,7.78-11.28,7.78-7.67,0-12.48-5.08-12.48-13.13,0-7.88,4.86-13.06,12.26-13.06,7,0,11.77,4.86,11.77,11.72C42.18,100.77,42.15,101.69,42.07,102.6ZM37.58,99c0-4.37-2.7-7.07-7.23-7.07S23,94.77,22.79,99Z"/><path class="cls-1" d="M73.39,88.77V113c0,4.75-1.51,8.32-4.32,10.48-2.11,1.56-5,2.32-8.59,2.32a15.38,15.38,0,0,1-8.85-2.43A8.39,8.39,0,0,1,48,116.8h4.92c.32,2.92,2.81,5.08,7.56,5.08,5.4,0,8.31-2.59,8.31-8.53v-4c-1.56,3.13-5.23,5-8.85,5-7.62,0-12.32-5.73-12.32-13.07S52.6,88.13,60,88.13a9.46,9.46,0,0,1,8.74,5.07V88.77ZM69,101.25c0-4.91-3.19-8.91-8.42-8.91-5,0-8.32,3.78-8.32,8.91s3.4,8.85,8.32,8.85C65.77,110.1,69,106.11,69,101.25Z"/><path class="cls-1" d="M81.43,80.73a3.81,3.81,0,1,1,3.81,3.81h0A3.83,3.83,0,0,1,81.43,80.73Zm1.51,8h4.65v24.9H82.94Z"/><path class="cls-1" d="M95.15,101.25c0-7.29,4.86-13.12,13-13.12s13,5.83,13,13.12-4.92,13.07-13,13.07S95.15,108.49,95.15,101.25Zm21.22,0c0-5-3-8.91-8.26-8.91s-8.32,3.89-8.32,8.91,3.08,8.85,8.32,8.85S116.37,106.22,116.37,101.25Z"/><path class="cls-1" d="M128.57,88.77h4.7v4.59c1.35-3.18,4.37-5.23,8.7-5.23,6.1,0,9.23,3.56,9.23,10.2v15.34h-4.65V100.39c0-5.57-1.83-8.21-6.26-8.21-4.64,0-7,3.29-7,8.31v13.18h-4.7Z"/><path class="cls-1" d="M182.41,102.6H163.13c.11,4.81,3.08,7.61,7.83,7.61,3.3,0,5.56-1.29,6.59-3.67h4.7c-.86,4.59-5.45,7.78-11.29,7.78-7.66,0-12.47-5.08-12.47-13.13,0-7.88,4.86-13.06,12.26-13.06,7,0,11.77,4.86,11.77,11.72A25.19,25.19,0,0,1,182.41,102.6ZM177.93,99c0-4.37-2.7-7.07-7.24-7.07s-7.34,2.86-7.56,7.07Z"/><path class="cls-1" d="M190.08,88.77h4.7v4.59c1.35-3.18,4.37-5.23,8.69-5.23,6.1,0,9.24,3.56,9.24,10.2v15.34h-4.65V100.39c0-5.57-1.84-8.21-6.26-8.21-4.65,0-7,3.29-7,8.31v13.18h-4.7Z"/></svg>